<svg width="921" height="108" viewBox="0 0 921 108" version="1.1" xmlns="https://www.w3.org/2000/svg" xmlns:xlink="https://www.w3.org/1999/xlink">
<title>Navnabretti</title>
<desc>Created using Figma</desc>
<g id="Canvas" transform="translate(450 519)">
<g id="Navnabretti">
<use xlink:href="#path0_fill" transform="translate(-463 -548)" fill="#188C8B"/>
<use xlink:href="#path1_fill" transform="translate(-463 -548)" fill="#F2746B"/>
</g>
</g>
<defs>
<path id="path0_fill" d="M 20.736 46.584L 20.736 135L 13.392 135L 13.392 32.76L 19.008 32.76L 90.72 122.76L 90.72 32.76L 98.064 32.76L 98.064 135L 91.296 135L 20.736 46.584ZM 156.879 136.44C 153.423 136.44 150.207 135.864 147.231 134.712C 144.255 133.464 141.615 131.832 139.311 129.816C 137.103 127.704 135.375 125.256 134.127 122.472C 132.879 119.592 132.255 116.52 132.255 113.256C 132.255 109.992 133.023 107.016 134.559 104.328C 136.095 101.64 138.207 99.336 140.895 97.416C 143.679 95.4 146.991 93.864 150.831 92.808C 154.671 91.656 158.895 91.08 163.503 91.08C 167.535 91.08 171.567 91.464 175.599 92.232C 179.727 92.904 183.423 93.864 186.687 95.112L 186.687 87.768C 186.687 80.664 184.671 75.048 180.639 70.92C 176.607 66.696 171.135 64.584 164.223 64.584C 160.575 64.584 156.687 65.352 152.559 66.888C 148.527 68.424 144.399 70.632 140.175 73.512L 137.439 68.616C 147.039 62.088 156.159 58.824 164.799 58.824C 173.823 58.824 180.927 61.464 186.111 66.744C 191.295 71.928 193.887 79.128 193.887 88.344L 193.887 124.92C 193.887 127.32 194.943 128.52 197.055 128.52L 197.055 135C 196.575 135.096 196.047 135.144 195.471 135.144C 194.991 135.24 194.559 135.288 194.175 135.288C 192.255 135.288 190.719 134.664 189.567 133.416C 188.415 132.072 187.743 130.488 187.551 128.664L 187.551 122.472C 184.095 126.984 179.679 130.44 174.303 132.84C 168.927 135.24 163.119 136.44 156.879 136.44ZM 158.319 130.68C 163.887 130.68 168.975 129.624 173.583 127.512C 178.287 125.4 181.887 122.616 184.383 119.16C 185.919 117.144 186.687 115.224 186.687 113.4L 186.687 100.152C 183.231 98.808 179.631 97.8 175.887 97.128C 172.143 96.456 168.255 96.12 164.223 96.12C 160.479 96.12 157.071 96.552 153.999 97.416C 150.927 98.184 148.287 99.288 146.079 100.728C 143.871 102.168 142.143 103.944 140.895 106.056C 139.743 108.072 139.167 110.328 139.167 112.824C 139.167 115.32 139.647 117.672 140.607 119.88C 141.567 122.088 142.911 124.008 144.639 125.64C 146.367 127.176 148.383 128.424 150.687 129.384C 153.087 130.248 155.631 130.68 158.319 130.68ZM 255.582 135L 224.334 60.12L 231.822 60.12L 259.47 127.8L 287.262 60.12L 294.318 60.12L 263.07 135L 255.582 135ZM 388.54 135L 381.34 135L 381.34 93.24C 381.34 83.544 379.948 76.488 377.164 72.072C 374.476 67.656 370.156 65.448 364.204 65.448C 361.036 65.448 357.868 66.024 354.7 67.176C 351.628 68.328 348.748 69.96 346.06 72.072C 343.372 74.184 341.02 76.68 339.004 79.56C 336.988 82.344 335.5 85.368 334.54 88.632L 334.54 135L 327.34 135L 327.34 60.12L 334.108 60.12L 334.108 77.976C 335.644 75.096 337.516 72.504 339.724 70.2C 342.028 67.8 344.572 65.784 347.356 64.152C 350.236 62.424 353.26 61.128 356.428 60.264C 359.596 59.304 362.86 58.824 366.22 58.824C 374.38 58.824 380.14 61.704 383.5 67.464C 386.86 73.128 388.54 81.288 388.54 91.944L 388.54 135ZM 447.461 136.44C 444.005 136.44 440.789 135.864 437.813 134.712C 434.837 133.464 432.197 131.832 429.893 129.816C 427.685 127.704 425.957 125.256 424.709 122.472C 423.461 119.592 422.837 116.52 422.837 113.256C 422.837 109.992 423.605 107.016 425.141 104.328C 426.677 101.64 428.789 99.336 431.477 97.416C 434.261 95.4 437.573 93.864 441.413 92.808C 445.253 91.656 449.477 91.08 454.085 91.08C 458.117 91.08 462.149 91.464 466.181 92.232C 470.309 92.904 474.005 93.864 477.269 95.112L 477.269 87.768C 477.269 80.664 475.253 75.048 471.221 70.92C 467.189 66.696 461.717 64.584 454.805 64.584C 451.157 64.584 447.269 65.352 443.141 66.888C 439.109 68.424 434.981 70.632 430.757 73.512L 428.021 68.616C 437.621 62.088 446.741 58.824 455.381 58.824C 464.405 58.824 471.509 61.464 476.693 66.744C 481.877 71.928 484.469 79.128 484.469 88.344L 484.469 124.92C 484.469 127.32 485.525 128.52 487.637 128.52L 487.637 135C 487.157 135.096 486.629 135.144 486.053 135.144C 485.573 135.24 485.141 135.288 484.757 135.288C 482.837 135.288 481.301 134.664 480.149 133.416C 478.997 132.072 478.325 130.488 478.133 128.664L 478.133 122.472C 474.677 126.984 470.261 130.44 464.885 132.84C 459.509 135.24 453.701 136.44 447.461 136.44ZM 448.901 130.68C 454.469 130.68 459.557 129.624 464.165 127.512C 468.869 125.4 472.469 122.616 474.965 119.16C 476.501 117.144 477.269 115.224 477.269 113.4L 477.269 100.152C 473.813 98.808 470.213 97.8 466.469 97.128C 462.725 96.456 458.837 96.12 454.805 96.12C 451.061 96.12 447.653 96.552 444.581 97.416C 441.509 98.184 438.869 99.288 436.661 100.728C 434.453 102.168 432.725 103.944 431.477 106.056C 430.325 108.072 429.749 110.328 429.749 112.824C 429.749 115.32 430.229 117.672 431.189 119.88C 432.149 122.088 433.493 124.008 435.221 125.64C 436.949 127.176 438.965 128.424 441.269 129.384C 443.669 130.248 446.213 130.68 448.901 130.68Z"/>
<path id="path1_fill" d="M 561.525 136.44C 555.669 136.44 550.197 134.904 545.109 131.832C 540.021 128.76 536.037 124.824 533.157 120.024L 533.157 135L 526.533 135L 526.533 29.88L 533.733 29.88L 533.733 76.392C 537.285 71.208 541.461 66.984 546.261 63.72C 551.157 60.456 556.773 58.824 563.109 58.824C 568.389 58.824 573.141 59.976 577.365 62.28C 581.685 64.488 585.285 67.464 588.165 71.208C 591.141 74.856 593.397 79.032 594.933 83.736C 596.565 88.344 597.381 93.048 597.381 97.848C 597.381 103.032 596.469 107.976 594.645 112.68C 592.821 117.288 590.277 121.368 587.013 124.92C 583.845 128.376 580.053 131.16 575.637 133.272C 571.317 135.384 566.613 136.44 561.525 136.44ZM 560.085 129.96C 564.501 129.96 568.533 129.048 572.181 127.224C 575.829 125.4 578.949 123 581.541 120.024C 584.229 116.952 586.293 113.496 587.733 109.656C 589.269 105.816 590.037 101.88 590.037 97.848C 590.037 93.624 589.317 89.592 587.877 85.752C 586.533 81.816 584.565 78.36 581.973 75.384C 579.477 72.312 576.453 69.864 572.901 68.04C 569.445 66.216 565.605 65.304 561.381 65.304C 558.213 65.304 555.237 65.88 552.453 67.032C 549.669 68.088 547.077 69.528 544.677 71.352C 542.373 73.176 540.261 75.288 538.341 77.688C 536.517 80.088 534.981 82.584 533.733 85.176L 533.733 109.944C 534.021 112.728 535.077 115.368 536.901 117.864C 538.725 120.264 540.885 122.376 543.381 124.2C 545.973 125.928 548.757 127.32 551.733 128.376C 554.709 129.432 557.493 129.96 560.085 129.96ZM 665.968 66.6C 659.248 66.792 653.344 68.808 648.256 72.648C 643.264 76.392 639.76 81.576 637.745 88.2L 637.745 135L 630.544 135L 630.544 60.12L 637.457 60.12L 637.457 78.552C 640.048 73.272 643.457 69 647.681 65.736C 652.001 62.376 656.609 60.456 661.505 59.976C 662.465 59.88 663.328 59.832 664.096 59.832C 664.865 59.832 665.488 59.832 665.968 59.832L 665.968 66.6ZM 726.37 136.44C 721.09 136.44 716.194 135.432 711.682 133.416C 707.17 131.304 703.234 128.472 699.874 124.92C 696.61 121.272 694.018 117.096 692.098 112.392C 690.274 107.688 689.362 102.648 689.362 97.272C 689.362 91.992 690.274 87.048 692.098 82.44C 694.018 77.736 696.61 73.656 699.874 70.2C 703.138 66.648 706.978 63.864 711.394 61.848C 715.906 59.832 720.754 58.824 725.938 58.824C 731.218 58.824 736.114 59.88 740.626 61.992C 745.138 64.008 749.026 66.792 752.29 70.344C 755.554 73.8 758.098 77.88 759.922 82.584C 761.746 87.192 762.658 92.088 762.658 97.272C 762.658 97.752 762.658 98.376 762.658 99.144C 762.658 99.816 762.61 100.248 762.514 100.44L 696.85 100.44C 697.138 104.76 698.146 108.792 699.874 112.536C 701.602 116.184 703.762 119.352 706.354 122.04C 709.042 124.728 712.114 126.84 715.57 128.376C 719.026 129.912 722.722 130.68 726.658 130.68C 729.25 130.68 731.794 130.344 734.29 129.672C 736.786 128.904 739.09 127.896 741.202 126.648C 743.41 125.4 745.33 123.912 746.962 122.184C 748.69 120.36 750.034 118.392 750.994 116.28L 757.33 118.008C 756.274 120.696 754.69 123.192 752.578 125.496C 750.562 127.704 748.162 129.624 745.378 131.256C 742.69 132.888 739.714 134.136 736.45 135C 733.186 135.96 729.826 136.44 726.37 136.44ZM 755.746 94.68C 755.458 90.264 754.45 86.232 752.722 82.584C 751.09 78.936 748.93 75.816 746.242 73.224C 743.65 70.536 740.626 68.472 737.17 67.032C 733.714 65.496 730.018 64.728 726.082 64.728C 722.146 64.728 718.45 65.496 714.994 67.032C 711.538 68.472 708.466 70.536 705.778 73.224C 703.186 75.816 701.074 78.984 699.442 82.728C 697.906 86.376 696.994 90.36 696.706 94.68L 755.746 94.68ZM 830.064 131.4C 829.68 131.592 829.008 131.976 828.048 132.552C 827.184 133.032 826.032 133.512 824.592 133.992C 823.248 134.472 821.712 134.904 819.984 135.288C 818.256 135.672 816.384 135.864 814.368 135.864C 812.352 135.864 810.432 135.576 808.608 135C 806.88 134.424 805.344 133.56 804 132.408C 802.656 131.256 801.6 129.864 800.832 128.232C 800.064 126.6 799.68 124.68 799.68 122.472L 799.68 66.024L 789.168 66.024L 789.168 60.12L 799.68 60.12L 799.68 34.488L 806.88 34.488L 806.88 60.12L 824.304 60.12L 824.304 66.024L 806.88 66.024L 806.88 120.744C 806.88 123.528 807.84 125.64 809.76 127.08C 811.68 128.424 813.84 129.096 816.24 129.096C 819.216 129.096 821.76 128.616 823.872 127.656C 826.08 126.6 827.424 125.928 827.904 125.64L 830.064 131.4ZM 894.909 131.4C 894.525 131.592 893.853 131.976 892.893 132.552C 892.029 133.032 890.877 133.512 889.437 133.992C 888.093 134.472 886.557 134.904 884.829 135.288C 883.101 135.672 881.229 135.864 879.213 135.864C 877.197 135.864 875.277 135.576 873.453 135C 871.725 134.424 870.189 133.56 868.845 132.408C 867.501 131.256 866.445 129.864 865.677 128.232C 864.909 126.6 864.525 124.68 864.525 122.472L 864.525 66.024L 854.013 66.024L 854.013 60.12L 864.525 60.12L 864.525 34.488L 871.725 34.488L 871.725 60.12L 889.149 60.12L 889.149 66.024L 871.725 66.024L 871.725 120.744C 871.725 123.528 872.685 125.64 874.605 127.08C 876.525 128.424 878.685 129.096 881.085 129.096C 884.061 129.096 886.605 128.616 888.717 127.656C 890.925 126.6 892.269 125.928 892.749 125.64L 894.909 131.4ZM 926.346 135L 926.346 60.12L 933.546 60.12L 933.546 135L 926.346 135ZM 926.346 43.128L 926.346 29.88L 933.546 29.88L 933.546 43.128L 926.346 43.128Z"/>
</defs>
</svg>
