<svg  viewBox="0 0 547 475" version="1.1" xmlns="http://www.w3.org/2000/svg" xmlns:xlink="http://www.w3.org/1999/xlink">
      <title>Barnanavn</title>
      <desc>Created using Figma</desc>
      <g id="Canvas" transform="translate(335 283)">
      <g id="baby-standing-up-silhouette-by-Vexels" opacity="0.2">
      <path d="M -335 -441L 212 -441L 212 192L -335 192L -335 -441Z" fill="#FFFFFF"/>
      <g id="Vector">
      <use xlink:href="#path0_fill" transform="translate(-335 -441)" fill="#5187B5"/>
      </g>
      </g>
      </g>
      <defs>
      <path id="path0_fill" d="M 22.0878 559.416C 27.8997 570.808 37.2037 593.257 37.2037 593.257C 37.2037 593.257 29.2296 597.942 24.9119 601.294C 20.5919 604.647 12.7866 611.679 10.1315 615.532C 7.47284 619.386 7.80489 624.912 11.7922 625.748C 15.7785 626.587 20.095 624.577 27.7342 619.22C 26.4055 621.567 27.7342 628.262 34.047 628.931C 40.3598 629.605 46.0028 627.428 49.6587 624.413C 53.3083 621.393 60.6195 611.343 60.6195 611.343C 60.6195 611.343 60.2817 614.192 59.6211 616.036C 58.9547 617.876 55.3068 620.726 55.3068 623.403C 55.3068 626.085 57.2939 630.111 63.2712 630.111C 69.256 630.111 74.0694 628.261 78.8869 623.907C 84.203 629.941 94.166 626.254 97.9873 623.07C 101.808 619.89 104.961 616.036 109.943 612.849C 114.927 609.669 120.572 606.653 127.711 606.653C 134.854 606.653 142.165 606.988 147.813 608.998C 153.455 611.008 162.759 613.687 167.241 611.85C 171.726 610.005 172.885 605.482 172.055 602.298C 171.226 599.114 167.406 598.365 163.916 598.276C 160.434 598.193 157.941 595.85 156.028 594.173C 154.115 592.495 150.964 589.652 150.964 589.652C 150.964 589.652 200.043 592.16 240.402 591.414C 280.756 590.658 310.03 586.634 323.479 582.111C 327.343 587.262 338.302 596.312 354.496 599.453C 351.629 602.596 339.298 603.976 337.056 604.727C 334.813 605.482 332.949 608.369 335.935 612.265C 338.926 616.16 348.642 616.666 356.113 616.417C 363.588 616.16 372.43 613.021 376.418 612.646C 380.4 612.265 389.003 611.389 389.003 611.389C 389.003 611.389 390.866 615.034 391.112 619.429C 391.368 623.827 391.864 628.848 396.718 629.104C 401.579 629.353 404.069 629.227 407.556 625.836C 411.044 622.443 413.041 614.278 413.041 614.278C 413.041 614.278 413.288 619.177 413.041 623.323C 412.788 627.471 414.533 632.871 421.633 632.998C 428.732 633.124 431.718 628.102 432.848 623.95C 433.963 619.807 435.088 617.044 435.088 617.044L 438.825 616.792C 438.825 616.792 439.945 619.052 440.321 622.195C 440.69 625.333 440.069 632.622 448.788 632.622C 457.506 632.622 459.002 625.585 458.752 622.066C 458.502 618.547 459.378 616.289 459.378 616.289C 459.378 616.289 460.374 616.418 461.988 615.152C 464.859 620.431 477.561 627.969 484.039 628.102C 490.515 628.224 492.138 625.332 492.76 621.313C 493.376 617.294 489.891 614.405 486.156 612.892C 482.415 611.389 478.058 605.981 478.058 605.981C 478.058 605.981 492.008 607.991 498.487 608.752C 504.967 609.505 516.175 610.507 524.895 608.245C 525.89 608.752 538.098 612.017 544.324 604.727C 550.557 597.443 545.077 588.645 536.352 580.86C 537.102 572.562 530.874 570.556 525.396 571.563C 515.674 553.217 485.781 543.417 485.781 543.417C 485.781 543.417 505.214 508.739 511.441 485.376C 517.669 462.008 516.421 432.607 517.919 420.041C 519.411 407.478 516.923 387.121 512.939 377.576C 508.949 368.024 499.485 351.442 488.269 345.661C 477.061 339.886 457.629 342.898 449.908 345.913C 442.184 348.927 427.984 356.219 427.984 356.219C 427.984 356.219 409.305 334.354 401.331 324.305C 393.358 314.256 385.384 298.423 375.668 283.346C 365.956 268.272 346.772 252.691 332.321 248.668C 317.875 244.651 297.944 237.617 297.944 237.617C 297.944 237.617 298.94 224.549 300.187 216.507C 303.924 215.753 305.419 213.75 308.158 206.206C 310.896 198.665 315.135 194.395 319.622 184.845C 324.103 175.296 326.341 173.036 329.585 162.731C 332.821 152.43 325.597 146.149 319.622 144.389C 319.622 125.041 312.643 89.6111 308.657 72.7774C 304.671 55.9413 291.716 33.8295 267.549 19.0047C 243.391 4.1781 215.734 -2.60592 180.362 0.912979C 144.987 4.429 126.551 25.7893 111.6 40.6124C 96.6551 55.4361 85.9442 87.8508 84.45 99.914C 82.9547 111.975 84.2036 147.906 86.6962 168.261C 81.9586 171.527 82.2073 178.812 86.444 184.845C 90.6784 190.874 96.1599 198.666 100.645 206.455C 105.128 214.248 113.343 226.811 117.582 229.325C 118.332 235.604 125.49 256.599 125.49 256.599C 92.4447 272.93 73.7363 284.686 62.1148 301.106C 50.4888 317.522 47.667 345.329 46.6646 350.185C 45.6736 355.04 31.5521 376.155 24.4172 391.392C 17.2743 406.635 5.97751 432.103 4.31673 449.356C 1.16005 456.894 -1.66059 478.001 1.16006 499.277C 3.97785 520.552 16.2782 548.023 22.0878 559.416ZM 375.92 585.381C 384.639 564.527 387.131 553.217 386.885 548.444C 396.097 543.921 401.332 538.895 401.332 538.895C 401.332 538.895 398.841 560.002 402.079 565.783C 398.091 570.052 385.136 582.111 375.92 585.381ZM 70.2493 469.793C 73.2405 466.947 78.3905 455.555 81.0497 446.345C 83.7009 437.128 88.6838 416.19 92.6735 407.309C 96.6551 398.431 109.944 365.663 109.944 365.663C 109.944 365.663 119.077 395.416 126.219 415.355C 133.364 435.29 145.485 459.409 159.436 478.001C 138.342 481.182 127.385 484.034 113.76 492.411C 100.142 500.783 88.1841 511.506 82.5388 526.914C 78.8875 519.043 76.068 500.62 74.5686 491.4C 73.0733 482.187 73.2405 482.691 70.2493 469.793Z"/>
      </defs>
      </svg>